# xmcd
#
# Track frame offsets:
#	150
#	14891
#	33074
#	49562
#	63398
#	87978
#	106649
#	126444
#	143345
#	165562
#	180778
#
# Disc length: 2558 seconds
#
# Revision: 0
# Processed by: cddbd v1.5.2PL0 Copyright (c) Steve Scherf et al.
# Submitted via: audiograbber 1.83.01
#
DISCID=7f09fc0b
DTITLE=The Boppin' Blues Band - I Dig My Job
DYEAR=1996
DGENRE=Blues
TTITLE0=These blues you gave me
TTITLE1=I dig my job
TTITLE2=Le blues des loups
TTITLE3=Give it to the Lord
TTITLE4=On se retrouvera
TTITLE5=Change my mind
TTITLE6=Juke Joint Café
TTITLE7=Trop beau
TTITLE8=Nine lives
TTITLE9=Stan's Swang
TTITLE10=Great change since I've been born
EXTD=
EXTT0=
EXTT1=
EXTT2=
EXTT3=
EXTT4=
EXTT5=
EXTT6=
EXTT7=
EXTT8=
EXTT9=
EXTT10=
PLAYORDER=
